<svg width="48" height="48" viewBox="0 0 48 48" fill="none" xmlns="http://www.w3.org/2000/svg">
<path d="M48 24C48 37.2576 37.2576 48 24 48C10.7424 48 0 37.2576 0 24C0 10.7424 10.7424 0 24 0C37.2576 0 48 10.752 48 24Z" fill="#FF492C"/>
<path d="M34.3872 20.0832H28.1856V19.7952C28.1856 18.7392 28.3968 17.8656 28.8192 17.184C29.2416 16.4928 29.9712 15.888 31.0272 15.3504L31.5072 15.1104C32.3616 14.6784 32.5824 14.304 32.5824 13.8624C32.5824 13.3344 32.1216 12.9504 31.3824 12.9504C30.4992 12.9504 29.8368 13.4112 29.376 14.3424L28.1856 13.152C28.4448 12.5952 28.8672 12.1536 29.424 11.7984C29.9904 11.4432 30.6144 11.2704 31.296 11.2704C32.1504 11.2704 32.8896 11.4912 33.4944 11.952C34.1184 12.4128 34.4256 13.0464 34.4256 13.8432C34.4256 15.12 33.7056 15.8976 32.3616 16.5888L31.6032 16.9728C30.7968 17.376 30.4032 17.7408 30.288 18.384H34.3872V20.0832V20.0832ZM33.84 22.0416H27.0528L23.664 27.9168H30.4512L33.8496 33.792L37.2384 27.9168L33.84 22.0416ZM24.2496 31.8432C19.9296 31.8432 16.416 28.3296 16.416 24.0096C16.416 19.6896 19.9296 16.176 24.2496 16.176L26.9376 10.56C26.064 10.3872 25.1712 10.3008 24.2496 10.3008C16.6752 10.3008 10.5312 16.4448 10.5312 24.0096C10.5312 31.584 16.6656 37.728 24.2496 37.728C27.264 37.728 30.0576 36.7488 32.3232 35.0976L29.3472 29.952C27.984 31.1232 26.1984 31.8432 24.2496 31.8432Z" fill="white"/>
</svg>
